<svg width="35" height="38" fill="none" xmlns="http://www.w3.org/2000/svg"><g clip-path="url(#a)"><path d="M6.91 20.72v-2.26a143.265 143.265 0 0 1 20.17-1.33c0 .6 0 1.21-.06 1.82a25.518 25.518 0 0 1 6-1.82 16.67 16.67 0 0 0-31.99 3.26l5.88.33ZM28.08 24.23c-1.16 1.28-1.39 1.2-1.39 3.45v9.18A16.64 16.64 0 0 0 34.16 23a17.302 17.302 0 0 0-.32-3.1 33.109 33.109 0 0 0-5.76 4.33ZM7.2 25.72s-3.79-1.44-5.19-1.83a8.541 8.541 0 0 0-1.17-.28 16.65 16.65 0 0 0 8.68 14L7.2 25.72Z" fill="#FDC305"/><path d="M27.13 17.12A89.807 89.807 0 0 0 25.73.65s-.14-1.29-.89-.24a14.217 14.217 0 0 0-1.2 3.94 70.34 70.34 0 0 0-12.77.34C10.08 2 8.69.75 8.02 1c-.67.25-.72 3.31-.72 3.31l-.33 14.1a143.21 143.21 0 0 1 20.16-1.29Z" fill="#F06351"/><path d="M13.25 14c0-.09 1 .68 1.41.92.41.24.61.42.61.59 0 .17-.27.34-.63.34s-.91-.12-1-.27h1.23A8.34 8.34 0 0 1 13.25 14ZM20.73 14.11l-1.09 1.33c0 .06-.17.35.18.3a7.351 7.351 0 0 0 1.22-.29c.11 0 .07-.19-.11-.17-.18.02-.69.05-1 .11l.84-1.26s.07-.13-.04-.02ZM17.59 20.2a2.3 2.3 0 0 0 1.09-1c.28-.65 0-.91-.44-1a2.43 2.43 0 0 0-1.74.34c-.39.36-.34.72-.05 1a5.34 5.34 0 0 0 1.14.66Z" fill="#000"/><path d="M17.19 21.45a1.92 1.92 0 0 1-.46.6 1.73 1.73 0 0 1-1 .38 2.15 2.15 0 0 1-1.47-.43 2.3 2.3 0 0 1-.53-.44c-.1-.11-.222-.2-.36-.26 0 0 .75 4.1 2.57 4.75 1.82.65 2.14-.75 2.2-1.13a5.61 5.61 0 0 0-.82-3.23c-.02-.31-.03-.11-.13-.24Z" fill="#F06351"/><path d="M15.55 22.59a3.44 3.44 0 0 1-2.36-1.466.14.14 0 0 1 .03-.154.14.14 0 0 1 .2 0 3.26 3.26 0 0 0 2.11 1.3 2.091 2.091 0 0 0 1.63-1l.14-.19.1.21s.37.76 1 .8c.63.04 1.05-.41 1.61-1.28a.14.14 0 0 1 .2 0 .15.15 0 0 1 .05.2c-.64 1-1.27 1.44-1.88 1.4a1.55 1.55 0 0 1-1.12-.76 2.26 2.26 0 0 1-1.71.94Z" fill="#000"/><path d="M27.08 18.92a58.62 58.62 0 0 0-5.07 5.19A31.633 31.633 0 0 1 16.72 29c-.22-.53-1.62-1.51-1.62-1.51s-3.13-2.14-5.18-3.82a34.138 34.138 0 0 1-3.13-3l-2-.11a22.57 22.57 0 0 0 12 8.8c.86-.14 3.27-1.86 5.07-3.26a58.13 58.13 0 0 0 5.94-5.89 6.151 6.151 0 0 0 1.14-2c-1.1.39-1.86.71-1.86.71Z" fill="#F06351"/></g><defs><clipPath id="a"><path fill="#fff" transform="translate(.84)" d="M0 0h33.32v37.61H0z"/></clipPath></defs></svg>