<svg>
  <symbol id="logo-mobile" width="35" height="38" viewBox="0 0 35 38" fill="none" xmlns="http://www.w3.org/2000/svg">
    <g clip-path="url(#clip0_153_300)">
      <path d="M6.91078 20.72V18.46C13.5944 17.5423 20.3345 17.0979 27.0808 17.13C27.0808 17.73 27.0808 18.34 27.0208 18.95C28.9384 18.099 30.9536 17.4877 33.0208 17.13C31.7033 13.722 29.3025 10.8412 26.1879 8.93086C23.0732 7.02051 19.4172 6.1864 15.7822 6.55683C12.1472 6.92726 8.73456 8.48172 6.06929 10.9811C3.40402 13.4804 1.63374 16.7863 1.03078 20.39L6.91078 20.72Z" fill="#FDC305"/>
      <path d="M28.0808 24.23C26.9208 25.51 26.6908 25.43 26.6908 27.68C26.6908 28.59 26.6908 32.58 26.6908 36.86C28.9833 35.346 30.8653 33.2879 32.1688 30.8694C33.4722 28.4509 34.1566 25.7474 34.1608 23C34.1476 21.9591 34.0405 20.9216 33.8408 19.9C31.769 21.1295 29.8375 22.5814 28.0808 24.23Z" fill="#FDC305"/>
      <path d="M7.20077 25.72C7.20077 25.72 3.41077 24.28 2.01077 23.89C1.62784 23.7693 1.23687 23.6757 0.840775 23.61C0.94917 26.496 1.80636 29.3041 3.32816 31.7586C4.84996 34.2131 6.98403 36.2296 9.52077 37.61L7.20077 25.72Z" fill="#FDC305"/>
      <path d="M27.1308 17.12C27.1714 11.5986 26.7028 6.08529 25.7308 0.650004C25.7308 0.650004 25.5908 -0.639996 24.8408 0.410004C24.2517 1.65814 23.8474 2.98539 23.6408 4.35C19.3826 4.07577 15.1083 4.18958 10.8708 4.69C10.0808 2 8.69078 0.750004 8.02078 1C7.35078 1.25 7.30078 4.31 7.30078 4.31L6.97078 18.41C13.652 17.506 20.3888 17.0749 27.1308 17.12Z" fill="#F06351"/>
      <path d="M13.2508 14C13.2508 13.91 14.2508 14.68 14.6608 14.92C15.0708 15.16 15.2708 15.34 15.2708 15.51C15.2708 15.68 15.0008 15.85 14.6408 15.85C14.2808 15.85 13.7308 15.73 13.6408 15.58H14.5808H14.8708C14.2615 15.1294 13.7165 14.5978 13.2508 14Z" fill="black"/>
      <path d="M20.7308 14.11L19.6408 15.44C19.6408 15.5 19.4708 15.79 19.8208 15.74C20.235 15.6783 20.6431 15.5812 21.0408 15.45C21.1508 15.45 21.1108 15.26 20.9308 15.28C20.7508 15.3 20.2408 15.33 19.9308 15.39L20.7708 14.13C20.7708 14.13 20.8408 14 20.7308 14.11Z" fill="black"/>
      <path d="M17.5908 20.2C18.0543 19.9958 18.4375 19.6443 18.6808 19.2C18.9608 18.55 18.6808 18.29 18.2408 18.2C17.6387 18.0902 17.0173 18.2116 16.5008 18.54C16.1108 18.9 16.1608 19.26 16.4508 19.54C16.8021 19.8062 17.185 20.0279 17.5908 20.2Z" fill="black"/>
      <path d="M17.1908 21.45C17.0787 21.6785 16.9224 21.8825 16.7308 22.05C16.446 22.2791 16.0959 22.4122 15.7308 22.43C15.2046 22.472 14.6814 22.3189 14.2608 22C14.063 21.8808 13.8844 21.7324 13.7308 21.56C13.6303 21.4491 13.5076 21.3605 13.3708 21.3C13.3708 21.3 14.1208 25.4 15.9408 26.05C17.7608 26.7 18.0808 25.3 18.1408 24.92C18.2009 23.7851 17.915 22.6588 17.3208 21.69C17.3008 21.38 17.2908 21.58 17.1908 21.45Z" fill="#F06351"/>
      <path d="M15.5508 22.59C15.0861 22.5247 14.6397 22.3651 14.239 22.1209C13.8383 21.8767 13.4918 21.5531 13.2208 21.17C13.2075 21.157 13.1969 21.1414 13.1897 21.1242C13.1825 21.1071 13.1788 21.0886 13.1788 21.07C13.1788 21.0514 13.1825 21.0329 13.1897 21.0158C13.1969 20.9986 13.2075 20.983 13.2208 20.97C13.2338 20.9567 13.2494 20.9461 13.2665 20.9389C13.2837 20.9317 13.3021 20.928 13.3208 20.928C13.3394 20.928 13.3578 20.9317 13.375 20.9389C13.3922 20.9461 13.4077 20.9567 13.4208 20.97C13.9255 21.6642 14.6837 22.1313 15.5308 22.27C15.8624 22.245 16.1834 22.1413 16.4669 21.9674C16.7504 21.7934 16.9882 21.5544 17.1608 21.27L17.3008 21.08L17.4008 21.29C17.4008 21.29 17.7708 22.05 18.4008 22.09C19.0308 22.13 19.4508 21.68 20.0108 20.81C20.0238 20.7967 20.0394 20.7861 20.0565 20.7789C20.0737 20.7717 20.0921 20.768 20.1108 20.768C20.1294 20.768 20.1478 20.7717 20.165 20.7789C20.1822 20.7861 20.1977 20.7967 20.2108 20.81C20.2431 20.8306 20.2663 20.8629 20.2756 20.9C20.2849 20.9372 20.2796 20.9766 20.2608 21.01C19.6208 22.01 18.9908 22.45 18.3808 22.41C18.1488 22.3763 17.9274 22.2903 17.7334 22.1587C17.5394 22.0271 17.3778 21.8531 17.2608 21.65C17.0641 21.9245 16.8084 22.1514 16.5125 22.3141C16.2165 22.4767 15.8879 22.571 15.5508 22.59Z" fill="black"/>
      <path d="M27.0808 18.92C25.2852 20.5437 23.592 22.277 22.0108 24.11C20.4394 25.9361 18.6646 27.5768 16.7208 29C16.5008 28.47 15.1008 27.49 15.1008 27.49C15.1008 27.49 11.9708 25.35 9.92078 23.67C8.81492 22.7373 7.76947 21.7353 6.79078 20.67L4.79078 20.56C7.68095 24.7655 11.911 27.8676 16.7908 29.36C17.6508 29.22 20.0608 27.5 21.8608 26.1C23.9797 24.2819 25.9648 22.3134 27.8008 20.21C28.3033 19.621 28.69 18.9425 28.9408 18.21C27.8408 18.6 27.0808 18.92 27.0808 18.92Z" fill="#F06351"/>
    </g>
    <defs>
      <clipPath id="clip0_153_300">
        <rect width="33.32" height="37.61" fill="white" transform="translate(0.840775)"/>
      </clipPath>
    </defs>
  </symbol>

  <symbol id='logo-tablet' width="174" height="52" viewBox="0 0 174 52" fill="none" xmlns="http://www.w3.org/2000/svg">
    <g clip-path="url(#clip0_2403_706)">
      <path d="M51.5819 20.854C50.0969 17.265 47.7053 14.1312 44.6456 11.7649C41.5858 9.39869 37.9646 7.88262 34.143 7.36781C30.3214 6.85301 26.4328 7.35745 22.8646 8.83086C19.2965 10.3043 16.1735 12.6952 13.8068 15.7654C11.4402 18.8355 9.9125 22.4777 9.37609 26.329C8.83968 30.1802 9.31325 34.106 10.7496 37.7151C12.186 41.3242 14.535 44.4906 17.5625 46.8987C20.59 49.3068 24.1903 50.8726 28.0046 51.4399C27.505 49.6238 26.9967 47.6166 26.5488 45.4878C27.8519 46.3405 29.2235 47.0816 30.6492 47.7035C30.6492 47.7035 30.7526 49.5804 30.8904 51.6745C32.4308 51.7013 33.9698 51.5644 35.4818 51.2661C35.4427 51.0477 35.4427 50.8241 35.4818 50.6057C35.7316 48.9808 36.4208 46.0526 36.5586 44.167C37.552 43.2297 38.3948 42.1421 39.0567 40.9434L39.005 41.3257C38.5312 45.0273 37.5406 48.9808 36.9376 50.0757C36.7424 50.4381 36.5021 50.7739 36.2226 51.0749C39.3408 50.3371 42.2626 48.924 44.7855 46.9336C47.3083 44.9433 49.3718 42.4233 50.8329 39.5484C52.2941 36.6735 53.1179 33.5124 53.2472 30.2843C53.3765 27.0563 52.8083 23.8385 51.5819 20.854ZM50.3156 24.1472C49.9366 24.5208 49.1527 24.7728 49.0235 23.6432C48.8942 22.5136 48.8598 21.7229 48.8598 21.7229C48.8598 21.7229 47.1972 18.7425 46.577 18.7078C45.9568 18.673 41.5549 21.7229 40.3919 23.0524C39.3841 24.1733 39.1859 24.0951 39.1859 26.0675C39.1859 27.5534 39.3755 33.1666 39.2721 37.459L32.2514 39.3446C30.0448 39.9834 27.8007 40.4825 25.5323 40.8391L24.6709 35.7733H24.5503L22.3364 24.3297C22.3364 24.3297 19.0543 23.0784 17.8483 22.7396C17.2821 22.4897 16.6568 22.4084 16.0462 22.5054C15.4356 22.6024 14.8653 22.8736 14.4026 23.287C13.9306 23.7039 13.5531 24.2185 13.296 24.7958C13.0388 25.373 12.908 25.9994 12.9124 26.6323C13.0945 27.0362 13.2331 27.4585 13.3258 27.8922C13.3689 28.3093 12.2921 28.2659 11.603 28.2659C10.9138 28.2659 10.8105 27.0146 11.3532 25.5462C11.7766 24.417 12.3013 23.3292 12.921 22.2964C13.387 21.3738 13.9881 20.5273 14.7041 19.7852C14.7041 19.7852 14.8247 19.4898 15.7809 19.5767C16.7371 19.6636 22.0521 19.9503 22.0521 19.9503L22.0952 17.9779C27.8722 17.1733 33.6987 16.7842 39.5305 16.8135C39.5305 17.3436 39.5305 17.8736 39.5305 18.4037C41.7394 17.3869 44.118 16.7974 46.5425 16.6658C46.6723 16.6625 46.8008 16.6917 46.9166 16.7509C47.0323 16.81 47.1317 16.8973 47.2058 17.0047C47.4987 17.3783 49.2819 19.6115 49.4886 19.933C50.0677 20.7677 50.5942 21.6383 51.065 22.5397C50.9037 23.1104 50.6505 23.6505 50.3156 24.1385V24.1472Z" fill="#FDC305"/>
      <path d="M48.6363 18.8294C49.0411 19.3508 49.3943 19.8113 49.4977 19.9503C50.0768 20.7851 50.6033 21.6557 51.0741 22.5571C50.9102 23.1091 50.6601 23.6312 50.3333 24.1038C49.9543 24.4774 49.1704 24.7294 49.0411 23.5998C48.9119 22.4702 48.8602 21.7229 48.8602 21.7229C48.8602 21.7229 47.1977 18.7425 46.5775 18.7078C45.9572 18.673 41.5553 21.7229 40.3924 23.0524C39.3845 24.1733 39.1864 24.0951 39.1864 26.0675C39.1864 27.3709 39.3328 31.8458 39.2984 35.8254C40.8576 35.9992 43.149 36.4337 43.8381 37.459C43.8381 37.459 43.5883 31.2202 50.5659 34.4873C50.5659 34.4873 50.8071 25.9806 60.4378 28.1616C57.1639 24.2844 53.1505 21.1107 48.6363 18.8294Z" fill="#F06351"/>
      <path d="M39.5654 16.8135C39.6005 11.9987 39.1968 7.1907 38.3594 2.45035C38.3594 2.45035 38.2302 1.32075 37.61 2.24181C37.0982 3.34291 36.7499 4.51402 36.5763 5.71747C32.8938 5.47914 29.1975 5.57802 25.5328 6.0129C24.8264 3.62338 23.6204 2.53724 23.0432 2.82398C22.4661 3.11072 22.3972 5.67403 22.3972 5.67403L22.1129 17.9779C27.8956 17.1725 33.7279 16.7834 39.5654 16.8135Z" fill="#F06351"/>
      <path d="M39.0651 40.9434C39.1771 40.0136 39.2374 38.7798 39.2719 37.4156L32.2516 39.3011C30.0459 39.9546 27.8019 40.4682 25.5327 40.8391L26.4889 45.1837C26.4889 45.2793 26.4889 45.3748 26.5492 45.4704C27.8522 46.3231 29.2238 47.0642 30.6494 47.6862C32.7328 46.6815 34.7171 45.4799 36.5757 44.0975V44.1497C37.5647 43.217 38.4044 42.1354 39.0651 40.9434Z" fill="#E55645"/>
      <path d="M27.5657 14.0938C27.5227 14.0069 28.4271 14.6847 28.7803 14.8932C29.1334 15.1018 29.3057 15.2582 29.3057 15.4059C29.3057 15.5536 29.0818 15.7013 28.7717 15.7013C28.4616 15.7013 27.9792 15.5971 27.9103 15.4754C27.8414 15.3538 28.4271 15.4754 28.72 15.4754H28.9698C28.4395 15.084 27.9667 14.6189 27.5657 14.0938Z" fill="black"/>
      <path d="M34.0264 14.1894C34.0264 14.1894 33.165 15.3016 33.0875 15.3538C33.0099 15.4059 32.941 15.6492 33.2511 15.6057C33.6071 15.5521 33.9585 15.4708 34.302 15.3624C34.3968 15.3103 34.3623 15.1887 34.1986 15.206C34.035 15.2234 33.6129 15.2495 33.3373 15.3016L34.0694 14.1981C34.0694 14.1981 34.0953 14.0938 34.0264 14.1894Z" fill="black"/>
      <path d="M31.3215 19.4985C31.7208 19.321 32.0508 19.0156 32.2604 18.6296C32.5016 18.0561 32.2604 17.8389 31.8814 17.7607C31.36 17.6647 30.8218 17.7702 30.374 18.0561C30.038 18.3776 30.0811 18.6904 30.374 18.925C30.6649 19.1552 30.9832 19.3478 31.3215 19.4985Z" fill="black"/>
      <path d="M31.0113 20.5933C30.9124 20.7904 30.778 20.9672 30.615 21.1147C30.3697 21.3138 30.0682 21.4294 29.7537 21.4449C29.2794 21.4918 28.8052 21.3552 28.4271 21.0625C28.2535 20.9601 28.099 20.8278 27.9706 20.6715C27.8844 20.5769 27.7785 20.5027 27.6605 20.4543C27.6605 20.4543 28.3065 24.0255 29.8743 24.599C31.442 25.1725 31.7348 23.9387 31.7779 23.6085C31.8304 22.6196 31.5841 21.6379 31.0716 20.7932C31.0716 20.5325 31.0544 20.7063 31.0113 20.5933Z" fill="#F06351"/>
      <path d="M29.5469 21.5839C29.1438 21.5254 28.7566 21.3852 28.4087 21.1716C28.0608 20.9581 27.7594 20.6756 27.5226 20.3413C27.5015 20.3174 27.4897 20.2865 27.4897 20.2544C27.4897 20.2224 27.5015 20.1915 27.5226 20.1676C27.5339 20.156 27.5473 20.1468 27.5621 20.1405C27.5769 20.1343 27.5927 20.131 27.6088 20.131C27.6248 20.131 27.6407 20.1343 27.6555 20.1405C27.6703 20.1468 27.6837 20.156 27.6949 20.1676C27.9081 20.4692 28.1785 20.7252 28.4905 20.9206C28.8025 21.116 29.1499 21.2469 29.5124 21.3058C29.7993 21.2841 30.0769 21.194 30.3225 21.0429C30.5681 20.8919 30.7746 20.6842 30.9251 20.4369L31.0457 20.2718L31.1319 20.463C31.1319 20.463 31.4592 21.1234 31.9932 21.1581C32.5273 21.1929 32.9063 20.7932 33.3973 20.0372C33.4156 20.0096 33.444 19.9904 33.4763 19.9838C33.5086 19.9773 33.5422 19.984 33.5696 20.0025C33.597 20.0209 33.616 20.0496 33.6225 20.0822C33.629 20.1147 33.6223 20.1486 33.604 20.1762C33.0298 21.0278 32.4871 21.4362 31.976 21.4014C31.7785 21.375 31.5893 21.3043 31.4224 21.1946C31.2554 21.0848 31.115 20.9388 31.0113 20.7671C30.8427 21.0045 30.6238 21.201 30.3705 21.3423C30.1172 21.4836 29.8358 21.5661 29.5469 21.5839Z" fill="black"/>
      <path d="M31.2353 33.2795C33.0192 33.2795 34.4655 31.8207 34.4655 30.0211C34.4655 28.2215 33.0192 26.7626 31.2353 26.7626C29.4513 26.7626 28.0051 28.2215 28.0051 30.0211C28.0051 31.8207 29.4513 33.2795 31.2353 33.2795Z" fill="#FDC305"/>
      <path d="M35.5163 27.3709L32.8202 28.5092L33.8108 23.6172L27.3504 32.0978L30.0465 30.9595L29.0559 35.8602L35.5163 27.3709ZM29.1507 30.6988L32.734 25.998L32.0363 29.4737L33.7591 28.7611L30.1499 33.4707L30.8476 29.995L29.1507 30.6988Z" fill="#111111"/>
      <path d="M27.9447 29.4215C28.4775 29.4215 28.9095 28.9858 28.9095 28.4483C28.9095 27.9109 28.4775 27.4751 27.9447 27.4751C27.4119 27.4751 26.9799 27.9109 26.9799 28.4483C26.9799 28.9858 27.4119 29.4215 27.9447 29.4215Z" fill="#111111"/>
      <path d="M33.5612 32.9493C33.9371 32.9493 34.2417 32.642 34.2417 32.2629C34.2417 31.8838 33.9371 31.5764 33.5612 31.5764C33.1854 31.5764 32.8807 31.8838 32.8807 32.2629C32.8807 32.642 33.1854 32.9493 33.5612 32.9493Z" fill="#111111"/>
      <path d="M34.3882 31.0638C34.5547 31.0638 34.6897 30.9276 34.6897 30.7597C34.6897 30.5917 34.5547 30.4555 34.3882 30.4555C34.2217 30.4555 34.0867 30.5917 34.0867 30.7597C34.0867 30.9276 34.2217 31.0638 34.3882 31.0638Z" fill="#111111"/>
      <path d="M39.5224 18.3863C37.9674 19.8002 36.5029 21.3123 35.1377 22.9133C33.7778 24.5028 32.2433 25.9312 30.5635 27.171C30.374 26.7105 29.1594 25.8503 29.1594 25.8503C29.1594 25.8503 26.4545 23.9821 24.6799 22.5136C23.7207 21.7077 22.8169 20.8368 21.9751 19.9069L20.2522 19.8113C22.7392 23.4757 26.3826 26.183 30.5893 27.4925C31.3302 27.3709 33.4148 25.8677 34.974 24.6425C36.8187 23.0601 38.5461 21.3437 40.1426 19.5072C40.5717 18.9928 40.9044 18.4039 41.1246 17.7693C40.1426 18.0995 39.5224 18.3863 39.5224 18.3863Z" fill="#F06351"/>
      <path d="M22.3368 24.3297C22.3368 24.3297 19.0548 23.0784 17.8488 22.7396C17.2825 22.4897 16.6572 22.4084 16.0466 22.5054C15.4361 22.6024 14.8658 22.8736 14.4031 23.287C13.931 23.7039 13.5536 24.2185 13.2964 24.7958C13.0393 25.373 12.9084 25.9994 12.9128 26.6323C13.0949 27.0362 13.2335 27.4585 13.3263 27.8922C13.3694 28.3093 12.2926 28.2659 11.6034 28.2659C10.9143 28.2659 10.8109 27.0146 11.3536 25.5462C11.777 24.417 12.3018 23.3292 12.9214 22.2964C8.22664 24.7641 0 30.4642 0 30.4642C2.35316 30.3211 4.71429 30.3909 7.0551 30.6728C11.5776 31.1333 11.3622 34.7306 11.3622 34.7306C12.9529 34.2883 14.574 33.9659 16.2121 33.7661C18.0383 33.6445 18.1675 35.6082 18.1675 35.6082L18.6241 38.9622C19.3173 38.2057 20.0819 37.5189 20.9069 36.9116C21.9703 36.0529 23.3243 35.6476 24.6799 35.782L22.3368 24.3297Z" fill="#F06351"/>
      <path d="M73.7899 36.4945C72.9025 35.1681 72.4782 33.5814 72.584 31.9848V25.468C72.472 23.8596 72.8899 22.2589 73.7727 20.9148C74.5709 19.8779 75.9348 19.3624 77.8643 19.3682C79.7938 19.374 81.1002 19.8287 81.7836 20.7324C82.6168 21.8522 83.0234 23.2368 82.9292 24.6338V26.1631H79.3631V24.5035C79.3583 24.0668 79.3208 23.6311 79.2511 23.2001C79.208 22.8881 79.066 22.5985 78.8462 22.3746C78.7106 22.2573 78.5531 22.1684 78.3831 22.1132C78.213 22.058 78.0337 22.0376 77.8557 22.0531C77.6 22.0146 77.3388 22.0565 77.1076 22.1731C76.8764 22.2898 76.6864 22.4754 76.5636 22.7048C76.3371 23.315 76.2374 23.9657 76.2707 24.6164V32.8885C76.2314 33.5435 76.3465 34.1986 76.6066 34.8001C76.7309 35.0171 76.9153 35.1927 77.1372 35.3054C77.3591 35.4181 77.6088 35.463 77.8557 35.4344C78.0982 35.469 78.3454 35.4255 78.5619 35.31C78.7785 35.1946 78.9533 35.0131 79.0616 34.7914C79.27 34.1801 79.3606 33.5342 79.3286 32.8885V31.1507H82.8948V32.6539C82.9997 34.0715 82.6263 35.4832 81.8353 36.6596C81.0772 37.6154 79.7679 38.0846 77.9073 38.0846C76.0467 38.0846 74.591 37.5633 73.7899 36.4945Z" fill="#111111"/>
      <path d="M87.788 19.6201H91.871L95.3166 37.8674H91.9227L91.3111 33.8356H88.4513L87.7622 37.8413H84.3167L87.788 19.6201ZM90.9321 31.5417L89.8468 24.208L88.77 31.5417H90.9321Z" fill="#111111"/>
      <path d="M97.9615 22.3659H95.1707V19.6201H104.405V22.3659H101.648V37.8413H97.9529L97.9615 22.3659Z" fill="#111111"/>
      <path d="M111.65 19.6201H118.653V21.5144H114.174V27.536H117.809V29.3346H114.174V36.0166H118.696V37.8413H111.65V19.6201Z" fill="#444444"/>
      <path d="M120.729 19.6201H122.452L127.62 31.7241V19.6201H129.722V37.8674H128.111L122.943 25.4245V37.8413H120.807L120.729 19.6201Z" fill="#444444"/>
      <path d="M132.505 19.6201H139.499V21.5144H135.02V27.536H138.69V29.3346H135.055V36.0166H139.551V37.8413H132.505V19.6201Z" fill="#444444"/>
      <path d="M141.576 19.6201H145.211C146.643 19.5039 148.07 19.9075 149.234 20.7584C150.095 21.5144 150.517 22.7482 150.517 24.46C150.517 26.7771 149.773 28.1935 148.286 28.709L150.87 37.8413H148.424L146.055 29.2912H144.1V37.8413H141.576V19.6201ZM145.021 27.4404C145.851 27.5214 146.681 27.2858 147.347 26.78C147.618 26.4569 147.82 26.0812 147.942 25.6763C148.063 25.2713 148.101 24.8456 148.053 24.4253C148.071 23.8357 147.986 23.2477 147.804 22.6874C147.73 22.4808 147.615 22.2913 147.467 22.1301C147.319 21.969 147.141 21.8393 146.942 21.749C146.383 21.5176 145.78 21.4137 145.176 21.4449H144.065V27.4751L145.021 27.4404Z" fill="#444444"/>
      <path d="M153.911 36.4945C153.088 35.0926 152.707 33.4714 152.817 31.8458V25.7634C152.788 24.5896 152.933 23.418 153.248 22.2877C153.497 21.438 154.026 20.6992 154.747 20.1936C155.618 19.6642 156.626 19.41 157.641 19.4637C158.298 19.4007 158.961 19.4832 159.582 19.7053C160.204 19.9274 160.771 20.2839 161.242 20.7497C162.068 21.9176 162.459 23.3426 162.344 24.7728V25.4506H159.976V24.8858C159.992 24.2103 159.94 23.5348 159.821 22.8699C159.742 22.4437 159.509 22.0626 159.166 21.8011C158.719 21.5349 158.202 21.4108 157.684 21.4449C157.122 21.3963 156.562 21.5709 156.125 21.9315C155.768 22.2734 155.534 22.7261 155.462 23.2175C155.353 23.9332 155.304 24.657 155.315 25.3811V32.1499C155.247 33.1785 155.421 34.2088 155.824 35.1564C156.057 35.4478 156.354 35.6814 156.691 35.8395C157.028 35.9975 157.396 36.0757 157.768 36.0682C158.139 36.0606 158.504 35.9675 158.835 35.7959C159.165 35.6243 159.452 35.3788 159.674 35.0782C160.089 34.076 160.269 32.9905 160.2 31.9066V30.6206H157.908V28.822H162.474V37.8413H160.914L160.665 35.7472C160.467 36.4429 160.042 37.0508 159.459 37.472C158.876 37.8933 158.168 38.103 157.452 38.0672C156.778 38.1272 156.1 38.0144 155.481 37.7395C154.862 37.4645 154.322 37.0363 153.911 36.4945Z" fill="#444444"/>
      <path d="M167.711 31.4113L163.809 19.6201H166.152L168.917 28.4136L171.639 19.6201H174.008L170.132 31.4113V37.8413H167.72L167.711 31.4113Z" fill="#444444"/>
    </g>
    <defs>
      <clipPath id="clip0_2403_706">
        <rect width="174" height="51.6832" fill="white"/>
      </clipPath>
    </defs>
  </symbol>

  <symbol id="cat__weight-loss" width="50" height="53" viewBox="0 0 50 53" fill="none" xmlns="http://www.w3.org/2000/svg">
    <circle cx="25" cy="28" r="25" fill="#68B738"/>
    <g clip-path="url(#clip0_94_6)">
      <path d="M35.2034 0H35.008C34.6778 0.187081 34.415 0.473924 34.2571 0.819588C33.968 1.37738 33.7453 1.96735 33.5937 2.57732C33.5612 2.76073 33.4688 2.92811 33.331 3.05315C33.1932 3.17818 33.0179 3.25377 32.8326 3.26804C32.2658 3.36597 31.7288 3.59243 31.2626 3.93012C30.7965 4.26781 30.4135 4.7078 30.1429 5.21649C29.7708 5.87697 29.4526 6.5665 29.1914 7.27835C28.4611 9.17526 27.9006 11.134 27.2114 13.0464C26.8874 13.9175 26.872 13.9175 25.8949 13.9175C24.7274 13.9175 24.8097 13.7371 24.7943 15.0258C24.7943 15.433 24.9177 15.6392 25.3497 15.6186C25.4834 15.6186 25.684 15.5515 25.7354 15.7268C25.7869 15.9021 25.612 15.9794 25.5091 16.0825C24.8994 16.7029 24.1276 17.1388 23.2823 17.3402C22.3051 17.6031 21.3074 17.8093 20.356 18.1289C17.9131 18.9485 15.6554 20.0928 13.8966 22.0309C12.8681 23.2347 12.0445 24.6001 11.4589 26.0722C9.57143 30.5258 8.656 35.2165 7.94629 39.9536C7.612 42.1753 7.37543 44.4072 7.19543 46.6546C7.10286 47.7577 7 48.8763 7 50H24.1411C24.1696 49.7731 24.1283 49.5429 24.0229 49.3402C23.858 48.9289 23.5901 48.5672 23.2451 48.29C22.9 48.0128 22.4895 47.8295 22.0531 47.7577C21.6931 47.6753 21.652 47.567 21.8731 47.2835C22.2338 46.801 22.5103 46.2607 22.6909 45.6856C23.5291 43.2062 23.8531 40.6186 24.2594 38.0567C24.4889 36.0999 25.0894 34.2051 26.0286 32.4742C26.7611 31.2002 27.7382 30.0842 28.9034 29.1907C29.3303 28.866 29.3457 28.866 29.4177 29.4175C29.4691 29.7835 29.4794 30.1598 29.5051 30.5309C29.6595 32.9662 29.6285 35.4097 29.4126 37.8402C29.2184 39.7242 29.1926 41.6217 29.3354 43.5103C29.5399 45.7029 29.9304 47.8739 30.5029 50H37.3429C37.2536 49.442 36.9973 48.9243 36.6078 48.5156C36.2184 48.1069 35.7143 47.8264 35.1623 47.7113C34.5177 47.6087 33.8587 47.6438 33.2286 47.8144C32.92 47.8866 32.7914 47.8144 32.7657 47.4794C32.5529 44.7505 32.7261 42.0051 33.28 39.3247C33.966 36.2304 34.4912 33.1025 34.8537 29.9536C34.9887 28.6819 35.3881 27.4528 36.0263 26.3454C36.6383 25.2526 37.1731 24.1186 37.7749 23.0206C38.0138 22.6214 38.1575 22.1723 38.195 21.7083C38.2325 21.2443 38.1626 20.7779 37.9909 20.3454C37.852 19.9794 37.7183 19.6082 37.5486 19.2577C37.0343 18.2526 36.52 17.2577 36.0469 16.2423C35.7949 15.7268 35.8514 15.6649 36.412 15.6495C37.2503 15.6495 37.2503 15.6495 37.2657 14.8041C37.2657 14.6907 37.2657 14.5773 37.2657 14.4639C37.2657 14.1082 37.132 13.9124 36.7514 13.9485C36.4943 13.9485 36.2371 13.9485 35.9697 13.9485C35.6149 13.9485 35.512 13.799 35.5994 13.433C35.7729 12.838 36.1142 12.306 36.5823 11.9009C37.0503 11.4958 37.6252 11.2349 38.2377 11.1495C39.3772 11.0505 40.5251 11.1252 41.6423 11.3711C41.7712 11.4118 41.9109 11.4001 42.0312 11.3383C42.1515 11.2766 42.2427 11.1699 42.2851 11.0412C42.4909 10.5258 42.7171 10.0103 42.9486 9.49484C43.001 9.40339 43.0242 9.29801 43.015 9.19293C43.0058 9.08785 42.9647 8.98812 42.8971 8.90722C41.2514 6.81443 39.4669 4.86082 37.0343 3.60825C36.9168 3.55754 36.8138 3.47814 36.7347 3.3773C36.6557 3.27646 36.6031 3.15738 36.5817 3.03093C36.444 2.29408 36.225 1.57487 35.9286 0.886598C35.7895 0.519904 35.5349 0.20865 35.2034 0V0Z" fill="black"/>
    </g>
    <defs>
      <clipPath id="clip0_94_6">
        <rect width="36" height="50" fill="white" transform="translate(7)"/>
      </clipPath>
    </defs>
  </symbol>

  <symbol id="cat__weight-gain" width="67" height="50" viewBox="0 0 67 50" fill="none" xmlns="http://www.w3.org/2000/svg">
    <circle cx="34.5" cy="25" r="25" fill="#68B738"/>
    <g clip-path="url(#clip0_95_1)">
      <path d="M61.55 13.9C62.1272 12.9815 62.8944 12.1973 63.8 11.6C64.3 11.25 64.6 11.25 64.9 11.9C65.3 12.85 65.65 13.85 65.35 14.9C65.2954 15.0781 65.2851 15.2668 65.3199 15.4497C65.3548 15.6327 65.4338 15.8044 65.55 15.95C65.85 16.35 66.1 16.75 66.35 17.1C66.6902 17.5319 66.9109 18.0456 66.9899 18.5897C67.0689 19.1339 67.0034 19.6892 66.8 20.2C66.6164 20.6959 66.5817 21.2346 66.7 21.75C66.7999 22.245 66.7999 22.755 66.7 23.25C66.6596 23.6207 66.5095 23.9709 66.2691 24.2559C66.0286 24.5409 65.7086 24.7478 65.35 24.85C64.7104 24.9717 64.1396 25.3284 63.75 25.85C63.7028 25.9268 63.6365 25.9901 63.5577 26.0339C63.4789 26.0777 63.3901 26.1005 63.3 26.1C62.7 26.2 61.2 24.85 61.2 24.25V23.95C61.25 22.15 61.15 22 59.5 21.25C59.1546 21.1282 58.8452 20.9219 58.6 20.65C58.3 20.25 57.9 20.3 57.45 20.45C57 20.6 56.75 20.9 56.8 21.4C56.9508 22.6104 57.0009 23.8313 56.95 25.05C56.9533 25.1891 56.9875 25.3257 57.05 25.45C58.6 27.7 59.2 30.35 59.95 32.9C60.55 34.85 61.65 35.9 63.65 36.05C63.97 36.0755 64.2876 36.1257 64.6 36.2C65.0109 36.266 65.3926 36.4538 65.6956 36.739C65.9987 37.0242 66.2092 37.3938 66.3 37.8C66.65 38.85 66.45 39.1 65.4 39.1H62.15C61.7292 39.1213 61.3167 38.9778 61 38.7C60.4939 38.2729 59.9191 37.9348 59.3 37.7C58.6155 37.4473 58.0231 36.9943 57.6 36.4C57.0143 35.5817 56.3439 34.8275 55.6 34.15C54.2 32.7 52.7 31.3 51.4 29.8C50.4103 28.7779 49.8395 27.4221 49.8 26C49.8 25.55 49.7 25.35 49.2 25.55C49.0503 25.645 48.8773 25.6969 48.7 25.7C47.3 25.7 46.6 26.55 46.1 27.8C45.65 28.85 45.05 29.85 44.5 30.9C44.1881 31.5572 44.0178 32.2727 44 33C44 34.2 44.3 34.6 45.4 35C46.1 35.25 46.75 35.5 47.1 36.2C47.5 37 47.4 37.2 46.55 37.25H43.15C42.954 37.2694 42.7568 37.2267 42.5864 37.1281C42.4159 37.0294 42.2807 36.8796 42.2 36.7L41.3 35.2C41.0347 34.8086 40.8648 34.3605 40.8041 33.8916C40.7433 33.4227 40.7932 32.9461 40.95 32.5C41.1664 31.6317 41.1835 30.7258 41 29.85C40.8739 29.24 40.8848 28.6097 41.0318 28.0045C41.1788 27.3993 41.4582 26.8342 41.85 26.35C42.15 26 42.15 25.85 41.65 25.75C39.6054 25.3157 37.6233 24.627 35.75 23.7C35.7367 23.7 35.724 23.6947 35.7146 23.6853C35.7052 23.676 35.7 23.6632 35.7 23.65C34.1 23.05 33.8 23.15 33.35 24.8C32.95 26.2 32.55 27.6 32.25 29.05C31.9 30.65 32.3 32.15 32.8 33.65C33 34.25 33.6 34.2 34.05 34.35C35.05 34.65 35.9 35.05 36.3 36.1C36.65 36.9 36.6 37 35.75 37C34.9 37 34.05 36.95 33.15 37C32.3905 37.0137 31.6493 36.7667 31.05 36.3C28.65 34.7 27.95 32.25 27.75 29.6C27.65 27.95 26.75 26.65 25.7 25.4C25.5 25.15 25.3 25.05 25 25.25C23.9267 25.8418 22.8062 26.3435 21.65 26.75C19.2371 27.602 17.1198 29.1292 15.55 31.15C14.9638 31.8875 14.5842 32.7675 14.45 33.7C14.3 34.6 14.55 35 15.45 35.25C16.35 35.5 16.8 36 16.9 36.95C16.95 37.35 16.8 37.55 16.4 37.55H12.35C12.2174 37.5406 12.0891 37.4993 11.9759 37.4297C11.8628 37.36 11.7681 37.2641 11.7 37.15C11.0719 36.3724 10.7358 35.3995 10.75 34.4C10.7237 32.6724 10.8745 30.9468 11.2 29.25C11.2667 28.7418 11.4564 28.2576 11.7527 27.8394C12.0489 27.4212 12.4428 27.0815 12.9 26.85C15.85 25.45 17.4 22.8 18.8 20.05C19.1 19.5 18.85 19.4 18.35 19.45C16.9506 19.6442 15.6248 20.1952 14.5 21.05C13.0271 22.1244 11.6396 23.3113 10.35 24.6C8.9748 25.9968 7.15133 26.8643 5.19998 27.05C1.54998 27.25 -0.150021 25.2 -2.12286e-05 21.9C0.03351 20.7748 0.457802 19.6964 1.19998 18.85C1.45799 18.5155 1.80985 18.2655 2.21061 18.1319C2.61138 17.9983 3.04287 17.9872 3.44998 18.1C4.19998 18.3 4.39998 18.7 4.09998 19.45C3.94998 19.75 3.74998 20 3.59998 20.3C3.38428 20.6065 3.21574 20.9435 3.09998 21.3C2.54998 22.8 3.29998 23.85 4.84998 24C6.49998 24.15 7.84998 23.45 9.09998 22.45C10.6059 21.2441 11.9503 19.8493 13.1 18.3C13.9596 17.1687 15.042 16.2256 16.2804 15.529C17.5188 14.8325 18.8868 14.3971 20.3 14.25C21.45 14.1 22.45 13.6 23.55 13.3C25.6072 12.6728 27.7495 12.3692 29.9 12.4C30.896 12.4415 31.8883 12.2533 32.8 11.85C35.25 10.85 37.8 10.85 40.35 11.35C42.35 11.75 44.35 12.25 46.3 12.75C47.4605 12.9662 48.6537 12.9321 49.8 12.65C51.9943 12.0937 54.2389 11.7587 56.5 11.65C57.9812 11.5779 59.4576 11.8697 60.8 12.5C61.8 12.95 61.8 12.95 61.55 13.9Z" fill="black"/>
    </g>
    <defs>
      <clipPath id="clip0_95_1">
        <rect width="67" height="28" fill="white" transform="translate(0 11)"/>
      </clipPath>
    </defs>
  </symbol>


</svg>
